<?xml version="1.0" encoding="UTF-8" standalone="no"?>
<svg
   xmlns:dc="http://purl.org/dc/elements/1.1/"
   xmlns:cc="http://creativecommons.org/ns#"
   xmlns:rdf="http://www.w3.org/1999/02/22-rdf-syntax-ns#"
   xmlns:svg="http://www.w3.org/2000/svg"
   xmlns="http://www.w3.org/2000/svg"
   xmlns:sodipodi="http://sodipodi.sourceforge.net/DTD/sodipodi-0.dtd"
   xmlns:inkscape="http://www.inkscape.org/namespaces/inkscape"
   id="svg14"
   version="1.1"
   fill="#302f2f"
   width="24px"
   viewBox="0 0 24 24"
   height="24px"
   enable-background="new 0 0 24 24"
   sodipodi:docname="Liés_à_une_statistique.svg"
   inkscape:version="0.92.4 (5da689c313, 2019-01-14)">
  <sodipodi:namedview
     pagecolor="#ffffff"
     bordercolor="#666666"
     borderopacity="1"
     objecttolerance="10"
     gridtolerance="10"
     guidetolerance="10"
     inkscape:pageopacity="0"
     inkscape:pageshadow="2"
     inkscape:window-width="1920"
     inkscape:window-height="1052"
     id="namedview9"
     showgrid="false"
     inkscape:zoom="30.767578"
     inkscape:cx="5.1908843"
     inkscape:cy="12"
     inkscape:window-x="0"
     inkscape:window-y="28"
     inkscape:window-maximized="0"
     inkscape:current-layer="svg14" />
  <metadata
     id="metadata20">
    <rdf:RDF>
      <cc:Work
         rdf:about="">
        <dc:format>image/svg+xml</dc:format>
        <dc:type
           rdf:resource="http://purl.org/dc/dcmitype/StillImage" />
        <dc:title />
      </cc:Work>
    </rdf:RDF>
  </metadata>
  <defs
     id="defs18" />
  <circle
     r="9.0965099"
     cy="12.099033"
     cx="12.044785"
     id="path830"
     style="opacity:1;fill:none;fill-opacity:1;fill-rule:nonzero;stroke:#302f2f;stroke-width:1.1;stroke-linecap:round;stroke-miterlimit:4;stroke-dasharray:none;stroke-dashoffset:0;stroke-opacity:1" />
  <g
     transform="matrix(0.61049202,0,0,0.61049202,4.6171859,4.6493138)"
     id="g880"
     style="fill:#302f2f">
    <path
       style="fill:none"
       d="M 0,0 H 24 V 24 H 0 Z"
       id="path866"
       inkscape:connector-curvature="0" />
    <path
       d="m 4.2,17.78 5.3,-5.3 3.25,3.25 c 0.41,0.41 1.07,0.39 1.45,-0.04 L 21.37,7.62 C 21.72,7.23 21.7,6.63 21.33,6.25 20.93,5.85 20.26,5.86 19.88,6.29 L 13.49,13.47 10.2,10.18 C 9.81,9.79 9.18,9.79 8.79,10.18 l -6.09,6.1 c -0.39,0.39 -0.39,1.02 0,1.41 l 0.09,0.09 c 0.39,0.39 1.03,0.39 1.41,0 z"
       id="path868"
       inkscape:connector-curvature="0" />
  </g>
</svg>
