<?xml version="1.0" encoding="UTF-8" standalone="no"?>
<svg
   xmlns:dc="http://purl.org/dc/elements/1.1/"
   xmlns:cc="http://creativecommons.org/ns#"
   xmlns:rdf="http://www.w3.org/1999/02/22-rdf-syntax-ns#"
   xmlns:svg="http://www.w3.org/2000/svg"
   xmlns="http://www.w3.org/2000/svg"
   xmlns:sodipodi="http://sodipodi.sourceforge.net/DTD/sodipodi-0.dtd"
   xmlns:inkscape="http://www.inkscape.org/namespaces/inkscape"
   id="svg14"
   version="1.1"
   fill="#302f2f"
   width="24px"
   viewBox="0 0 24 24"
   height="24px"
   enable-background="new 0 0 24 24"
   sodipodi:docname="Moyennes_Eaux.svg"
   inkscape:version="0.92.4 (5da689c313, 2019-01-14)">
  <sodipodi:namedview
     pagecolor="#ffffff"
     bordercolor="#666666"
     borderopacity="1"
     objecttolerance="10"
     gridtolerance="10"
     guidetolerance="10"
     inkscape:pageopacity="0"
     inkscape:pageshadow="2"
     inkscape:window-width="1920"
     inkscape:window-height="1015"
     id="namedview9"
     showgrid="false"
     inkscape:zoom="19.666667"
     inkscape:cx="2.9564861"
     inkscape:cy="15.652036"
     inkscape:window-x="0"
     inkscape:window-y="24"
     inkscape:window-maximized="0"
     inkscape:current-layer="svg14" />
  <metadata
     id="metadata20">
    <rdf:RDF>
      <cc:Work
         rdf:about="">
        <dc:format>image/svg+xml</dc:format>
        <dc:type
           rdf:resource="http://purl.org/dc/dcmitype/StillImage" />
        <dc:title />
      </cc:Work>
    </rdf:RDF>
  </metadata>
  <defs
     id="defs18" />
  <circle
     r="9.0965099"
     cy="12.099033"
     cx="12.044785"
     id="path830"
     style="display:inline;opacity:1;fill:none;fill-opacity:1;fill-rule:nonzero;stroke:#302f2f;stroke-width:1.10000002;stroke-linecap:round;stroke-miterlimit:4;stroke-dasharray:none;stroke-dashoffset:0;stroke-opacity:1" />
  <path
     id="path1310"
     d="m 12.06328,6.687724 c -2.8463575,2.4298182 -4.2725869,4.529099 -4.2725869,6.302066 0,2.659449 2.029678,4.379401 4.2725869,4.379401 2.242909,0 4.272587,-1.719952 4.272587,-4.379401 0,-1.772967 -1.426228,-3.8722478 -4.272587,-6.302066 z m 0,1.4211783 c 2.162806,1.9758957 3.20444,3.6259267 3.204441,4.8808877 0,1.938512 -1.415455,3.311254 -3.204441,3.311254 -1.788985,0 -3.2044401,-1.372742 -3.2044401,-3.311254 0,-1.249622 1.0416356,-2.904992 3.2044401,-4.8808877 z"
     style="display:inline;opacity:1;stroke-width:0.10419135;stroke-miterlimit:4;stroke-dasharray:none" />
  <path
     id="path1317"
     d="m 8.5075825,12.836167 h 7.2500005 l -0.15625,1.15625 -0.296875,1.140625 -0.609375,0.5 -0.34375,0.34375 -0.34375,0.34375 -1.40625,0.546875 -1.171875,-0.234375 -0.71875,-0.125 -0.8750005,-0.296875 -0.703125,-0.65625 -0.40625,-0.6875 -0.34375,-0.8125 z"
     style="display:inline;fill:none;fill-opacity:1;stroke:#302f2f;stroke-width:0.6;stroke-linecap:butt;stroke-linejoin:miter;stroke-miterlimit:4;stroke-dasharray:none;stroke-opacity:1" />
  <path
     style="display:inline;stroke-width:0.35942683"
     id="path1257-5"
     d="m 10.080308,13.475879 c 0.129682,0.01855 0.222198,0.127612 0.229243,0.261313 0.03586,0.823401 0.654348,1.191986 1.136357,1.220376 0.151682,0.01434 0.261342,0.155327 0.240453,0.310833 -0.01944,0.144658 -0.14762,0.247959 -0.288787,0.235142 -0.752859,-0.05976 -1.5663104,-0.625771 -1.618893,-1.750126 -0.00617,-0.166749 0.1404015,-0.300595 0.301627,-0.277538 z"
     inkscape:connector-curvature="0" />
</svg>
