<?xml version="1.0" encoding="UTF-8" standalone="no"?>
<svg
   xmlns:dc="http://purl.org/dc/elements/1.1/"
   xmlns:cc="http://creativecommons.org/ns#"
   xmlns:rdf="http://www.w3.org/1999/02/22-rdf-syntax-ns#"
   xmlns:svg="http://www.w3.org/2000/svg"
   xmlns="http://www.w3.org/2000/svg"
   xmlns:sodipodi="http://sodipodi.sourceforge.net/DTD/sodipodi-0.dtd"
   xmlns:inkscape="http://www.inkscape.org/namespaces/inkscape"
   id="svg14"
   version="1.1"
   width="24px"
   viewBox="0 0 24 24"
   height="24px"
   enable-background="new 0 0 24 24"
   sodipodi:docname="Signature_hydrologique.svg"
   inkscape:version="0.92.4 (5da689c313, 2019-01-14)"
   fill="#302f2f">
  <sodipodi:namedview
     pagecolor="#ffffff"
     bordercolor="#666666"
     borderopacity="1"
     objecttolerance="10"
     gridtolerance="10"
     guidetolerance="10"
     inkscape:pageopacity="0"
     inkscape:pageshadow="2"
     inkscape:window-width="1920"
     inkscape:window-height="1015"
     id="namedview9"
     showgrid="false"
     inkscape:zoom="27.812867"
     inkscape:cx="12.244911"
     inkscape:cy="13.461826"
     inkscape:window-x="0"
     inkscape:window-y="24"
     inkscape:window-maximized="0"
     inkscape:current-layer="svg14" />
  <metadata
     id="metadata20">
    <rdf:RDF>
      <cc:Work
         rdf:about="">
        <dc:format>image/svg+xml</dc:format>
        <dc:type
           rdf:resource="http://purl.org/dc/dcmitype/StillImage" />
        <dc:title />
      </cc:Work>
    </rdf:RDF>
  </metadata>
  <defs
     id="defs18" />
  <circle
     r="9.0965099"
     cy="12.099033"
     cx="12.044785"
     id="path830"
     style="opacity:1;fill:none;fill-opacity:1;fill-rule:nonzero;stroke:#302f2f;stroke-width:1.1;stroke-linecap:round;stroke-miterlimit:4;stroke-dasharray:none;stroke-dashoffset:0;stroke-opacity:1" />
  <g
     style="fill:#000000"
     id="g833"
     transform="matrix(0.59551096,0,0,0.59551096,4.8267446,6.175357)">
    <path
       id="path819"
       d="M 0,0 H 24 V 24 H 0 Z"
       inkscape:connector-curvature="0"
       style="fill:none" />
    <path
       style="fill:#302f2f;fill-opacity:1;stroke-width:0.57453746"
       d="m 9.0996094,7.4863281 c -0.7928617,0 -1.2624563,0.2426133 -1.6933594,0.4609375 C 7.1591989,8.0736639 6.9400685,8.1828946 6.6757812,8.2460938 6.4172394,8.3035475 6.2265625,8.5090363 6.2265625,8.7675781 v 0.041016 c 0,0.3447224 0.3112995,0.5982413 0.6445313,0.5292968 C 7.3019968,9.25171 7.6231155,9.0850406 7.921875,8.9414062 8.2953243,8.7518089 8.5940164,8.5957031 9.0996094,8.5957031 c 0.5055929,0 0.804285,0.144615 1.1777346,0.3457031 0.430903,0.2183243 0.902451,0.4589844 1.695312,0.4589844 0.792862,0 1.26441,-0.2464055 1.695313,-0.4589844 0.373449,-0.1838519 0.677887,-0.3457031 1.177734,-0.3457031 0.517084,0 0.804285,0.144615 1.177735,0.3457031 0.298759,0.1493798 0.619878,0.3161632 1.050781,0.4023438 0.333231,0.063199 0.644531,-0.1903198 0.644531,-0.5292969 v -0.052734 c 0,-0.2642873 -0.196536,-0.4698901 -0.455078,-0.5273438 C 16.999385,8.1769213 16.788067,8.0736639 16.541016,7.9472656 16.110113,7.7289414 15.632819,7.4863281 14.845703,7.4863281 c -0.787116,0 -1.264409,0.2426133 -1.695312,0.4609375 -0.37345,0.183852 -0.677887,0.34375 -1.177735,0.34375 -0.517083,0 -0.804285,-0.1426619 -1.177734,-0.34375 C 10.364019,7.7346868 9.8924711,7.4863281 9.0996094,7.4863281 Z m 0,2.5468749 c -0.7928617,0 -1.2624563,0.246406 -1.6933594,0.458985 -0.2470511,0.132143 -0.4603221,0.241374 -0.7246094,0.298828 -0.2585418,0.05745 -0.4550781,0.263056 -0.4550781,0.527343 v 0.05274 c 0,0.338977 0.3112995,0.592382 0.6445313,0.523437 0.430903,-0.08618 0.7520217,-0.25285 1.0507812,-0.396484 0.3734493,-0.183852 0.6778868,-0.345703 1.1777344,-0.345703 0.4998476,0 0.804285,0.144615 1.1777346,0.345703 0.430903,0.218324 0.902451,0.458984 1.695312,0.458984 0.792862,0 1.26441,-0.246405 1.695313,-0.458984 0.373449,-0.183852 0.677887,-0.345703 1.177734,-0.345703 0.517084,0 0.804285,0.144615 1.177735,0.345703 0.298759,0.14938 0.619878,0.316163 1.050781,0.402344 0.333231,0.0632 0.644531,-0.190206 0.644531,-0.523438 v -0.05273 c 0,-0.264287 -0.196536,-0.46989 -0.455078,-0.527344 -0.264287,-0.05745 -0.475605,-0.166685 -0.722656,-0.298828 -0.430903,-0.22407 -0.919687,-0.464844 -1.695313,-0.464844 -0.775625,0 -1.264409,0.246406 -1.695312,0.458985 -0.37345,0.201088 -0.660651,0.343749 -1.177735,0.34375 -0.517083,0 -0.804285,-0.142662 -1.177734,-0.34375 -0.430903,-0.218325 -0.9024509,-0.458985 -1.6953126,-0.458985 z m 0,2.556641 c -0.7928617,0 -1.2624563,0.246405 -1.6933594,0.458984 -0.2470511,0.120653 -0.4662955,0.235629 -0.7363281,0.298828 -0.2527965,0.05745 -0.4433594,0.264896 -0.4433594,0.523438 v 0.05664 c 0,0.338977 0.3112995,0.592382 0.6445313,0.523438 0.430903,-0.08618 0.7520217,-0.25285 1.0507812,-0.396484 0.3734493,-0.201089 0.6606507,-0.345704 1.1777344,-0.345704 0.5170837,0 0.804285,0.144615 1.1777346,0.345704 0.430903,0.218324 0.902451,0.458984 1.695312,0.458984 0.792862,0 1.26441,-0.246406 1.695313,-0.458984 0.373449,-0.201089 0.66065,-0.345704 1.177734,-0.345704 0.517084,0 0.804285,0.144615 1.177735,0.345704 0.298759,0.149379 0.619878,0.316163 1.050781,0.402343 0.333231,0.0632 0.644531,-0.19032 0.644531,-0.529297 v -0.05078 c 0,-0.264287 -0.196536,-0.471843 -0.455078,-0.529297 -0.264287,-0.05745 -0.475605,-0.166684 -0.722656,-0.298828 -0.430903,-0.218324 -0.919687,-0.458984 -1.695313,-0.458984 -0.775625,0 -1.264409,0.246405 -1.695312,0.458984 -0.37345,0.183852 -0.677887,0.34375 -1.177735,0.34375 -0.517083,0 -0.804285,-0.142662 -1.177734,-0.34375 -0.430903,-0.218324 -0.9024509,-0.458984 -1.6953126,-0.458984 z"
       transform="matrix(1.7405306,0,0,1.7405306,-8.839157,-9.3716368)"
       id="path821"
       inkscape:connector-curvature="0" />
  </g>
</svg>
