<?xml version="1.0" encoding="UTF-8" standalone="no"?>
<svg
   xmlns:dc="http://purl.org/dc/elements/1.1/"
   xmlns:cc="http://creativecommons.org/ns#"
   xmlns:rdf="http://www.w3.org/1999/02/22-rdf-syntax-ns#"
   xmlns:svg="http://www.w3.org/2000/svg"
   xmlns="http://www.w3.org/2000/svg"
   id="svg14"
   version="1.1"
   fill="#302f2f"
   width="24px"
   viewBox="0 0 24 24"
   height="24px"
   enable-background="new 0 0 24 24">
  <metadata
     id="metadata20">
    <rdf:RDF>
      <cc:Work
         rdf:about="">
        <dc:format>image/svg+xml</dc:format>
        <dc:type
           rdf:resource="http://purl.org/dc/dcmitype/StillImage" />
        <dc:title></dc:title>
      </cc:Work>
    </rdf:RDF>
  </metadata>
  <defs
     id="defs18" />
  <circle
     r="9.0965099"
     cy="12.099033"
     cx="12.044785"
     id="path830"
     style="opacity:1;fill:none;fill-opacity:1;fill-rule:nonzero;stroke:#302f2f;stroke-width:1.1;stroke-linecap:round;stroke-miterlimit:4;stroke-dasharray:none;stroke-dashoffset:0;stroke-opacity:1" />
  <g
     transform="matrix(0.53858285,0,0,0.53858285,5.5817904,5.8877213)"
     id="g927"
     style="fill:#302f2f">
    <path
       style="fill:none"
       d="M 0,0 H 24 V 24 H 0 Z"
       id="path913" />
    <path
       d="M 4,16 H 7 C 7.55,16 8,15.55 8,15 8,14.45 7.55,14 7,14 H 4 c -0.55,0 -1,0.45 -1,1 0,0.55 0.45,1 1,1 z m 6.5,0 h 3 c 0.55,0 1,-0.45 1,-1 0,-0.55 -0.45,-1 -1,-1 h -3 c -0.55,0 -1,0.45 -1,1 0,0.55 0.45,1 1,1 z m 6.5,0 h 3 c 0.55,0 1,-0.45 1,-1 0,-0.55 -0.45,-1 -1,-1 h -3 c -0.55,0 -1,0.45 -1,1 0,0.55 0.45,1 1,1 z M 4,20 c 0.55,0 1,-0.45 1,-1 0,-0.55 -0.45,-1 -1,-1 -0.55,0 -1,0.45 -1,1 0,0.55 0.45,1 1,1 z m 4,0 c 0.55,0 1,-0.45 1,-1 0,-0.55 -0.45,-1 -1,-1 -0.55,0 -1,0.45 -1,1 0,0.55 0.45,1 1,1 z m 4,0 c 0.55,0 1,-0.45 1,-1 0,-0.55 -0.45,-1 -1,-1 -0.55,0 -1,0.45 -1,1 0,0.55 0.45,1 1,1 z m 4,0 c 0.55,0 1,-0.45 1,-1 0,-0.55 -0.45,-1 -1,-1 -0.55,0 -1,0.45 -1,1 0,0.55 0.45,1 1,1 z m 4,0 c 0.55,0 1,-0.45 1,-1 0,-0.55 -0.45,-1 -1,-1 -0.55,0 -1,0.45 -1,1 0,0.55 0.45,1 1,1 z M 4,12 h 6 c 0.55,0 1,-0.45 1,-1 0,-0.55 -0.45,-1 -1,-1 H 4 c -0.55,0 -1,0.45 -1,1 0,0.55 0.45,1 1,1 z m 10,0 h 6 c 0.55,0 1,-0.45 1,-1 0,-0.55 -0.45,-1 -1,-1 h -6 c -0.55,0 -1,0.45 -1,1 0,0.55 0.45,1 1,1 z M 3,5 v 2 c 0,0.55 0.45,1 1,1 h 16 c 0.55,0 1,-0.45 1,-1 V 5 C 21,4.45 20.55,4 20,4 H 4 C 3.45,4 3,4.45 3,5 Z"
       id="path915" />
  </g>
</svg>
