<?xml version="1.0" encoding="UTF-8" standalone="no"?>
<svg
   xmlns:dc="http://purl.org/dc/elements/1.1/"
   xmlns:cc="http://creativecommons.org/ns#"
   xmlns:rdf="http://www.w3.org/1999/02/22-rdf-syntax-ns#"
   xmlns:svg="http://www.w3.org/2000/svg"
   xmlns="http://www.w3.org/2000/svg"
   id="svg14"
   version="1.1"
   fill="#302f2f"
   width="24px"
   viewBox="0 0 24 24"
   height="24px"
   enable-background="new 0 0 24 24">
  <metadata
     id="metadata20">
    <rdf:RDF>
      <cc:Work
         rdf:about="">
        <dc:format>image/svg+xml</dc:format>
        <dc:type
           rdf:resource="http://purl.org/dc/dcmitype/StillImage" />
        <dc:title></dc:title>
      </cc:Work>
    </rdf:RDF>
  </metadata>
  <defs
     id="defs18" />
  <g
     transform="matrix(0.56255258,0,0,0.56255258,5.3301091,4.6652646)"
     id="g828"
     style="fill:#302f2f">
    <path
       style="fill:none"
       d="M 0,0 H 24 V 24 H 0 Z"
       id="path814" />
    <path
       d="M 19.35,10.04 C 18.67,6.59 15.64,4 12,4 9.11,4 6.61,5.64 5.36,8.04 2.35,8.36 0,10.9 0,14 c 0,3.31 2.69,6 6,6 h 13 c 2.76,0 5,-2.24 5,-5 0,-2.64 -2.05,-4.78 -4.65,-4.96 z M 19,18 H 6.17 C 4.08,18 2.22,16.47 2.02,14.39 1.79,12.01 3.66,10 6,10 c 1.92,0 3.53,1.36 3.91,3.17 0.1,0.48 0.5,0.83 0.98,0.83 0.61,0 1.11,-0.55 0.99,-1.15 -0.43,-2.24 -2.11,-4.03 -4.29,-4.63 1.1,-1.46 2.89,-2.37 4.89,-2.2 2.88,0.25 5.01,2.82 5.01,5.71 V 12 h 1.37 c 1.45,0 2.79,0.97 3.07,2.4 C 22.32,16.31 20.85,18 19,18 Z"
       id="path816" />
  </g>
  <circle
     r="9.0965099"
     cy="12.099033"
     cx="12.044785"
     id="path830"
     style="opacity:1;fill:none;fill-opacity:1;fill-rule:nonzero;stroke:#302f2f;stroke-width:1.1;stroke-linecap:round;stroke-miterlimit:4;stroke-dasharray:none;stroke-dashoffset:0;stroke-opacity:1" />
</svg>
