<?xml version="1.0" encoding="UTF-8" standalone="no"?>
<svg
   xmlns:dc="http://purl.org/dc/elements/1.1/"
   xmlns:cc="http://creativecommons.org/ns#"
   xmlns:rdf="http://www.w3.org/1999/02/22-rdf-syntax-ns#"
   xmlns:svg="http://www.w3.org/2000/svg"
   xmlns="http://www.w3.org/2000/svg"
   xmlns:sodipodi="http://sodipodi.sourceforge.net/DTD/sodipodi-0.dtd"
   xmlns:inkscape="http://www.inkscape.org/namespaces/inkscape"
   enable-background="new 0 0 24 24"
   height="24px"
   viewBox="0 0 24 24"
   width="24px"
   fill="#302f2f"
   version="1.1"
   id="svg14"
   sodipodi:docname="cloud.svg"
   inkscape:version="0.92.4 (5da689c313, 2019-01-14)">
  <metadata
     id="metadata20">
    <rdf:RDF>
      <cc:Work
         rdf:about="">
        <dc:format>image/svg+xml</dc:format>
        <dc:type
           rdf:resource="http://purl.org/dc/dcmitype/StillImage" />
        <dc:title></dc:title>
      </cc:Work>
    </rdf:RDF>
  </metadata>
  <defs
     id="defs18" />
  <sodipodi:namedview
     pagecolor="#ffffff"
     bordercolor="#302f2f"
     borderopacity="1"
     objecttolerance="10"
     gridtolerance="10"
     guidetolerance="10"
     inkscape:pageopacity="0"
     inkscape:pageshadow="2"
     inkscape:window-width="1920"
     inkscape:window-height="1015"
     id="namedview16"
     showgrid="false"
     inkscape:zoom="19.666666"
     inkscape:cx="3.9699822"
     inkscape:cy="13.498991"
     inkscape:window-x="0"
     inkscape:window-y="24"
     inkscape:window-maximized="0"
     inkscape:current-layer="g12" />
  <g
     id="g12">
    <g
       id="g10"
       inkscape:label="g10">
      <path
         d="M 12,2 C 6.48,2 2,6.48 2,12 2,17.52 6.48,22 12,22 17.52,22 22,17.52 22,12 22,6.48 17.52,2 12,2 Z m 0,18 C 7.59,20 4,16.41 4,12 4,7.59 7.59,4 12,4 c 4.41,0 8,3.59 8,8 0,4.41 -3.59,8 -8,8 z"
         id="path6"
         inkscape:connector-curvature="0"
         style="display:inline" />
    </g>
    <g
       style="fill:#302f2f;stroke:#302f2f;stroke-width:1.0948168;stroke-miterlimit:4;stroke-dasharray:none;stroke-opacity:1"
       id="g845"
       transform="matrix(0.82205533,0,0,0.82205533,5.4116424,3.3742821)">
      <path
         id="path834"
         d="M 13.405,8.527 A 5.001,5.001 0 0 0 3.906,7.523 3.5,3.5 0 1 0 3.5,14.5 H 13 A 3,3 0 0 0 13.405,8.527 Z M 8.5,5.5 a 4,4 0 0 1 3.976,3.555 0.5,0.5 0 0 0 0.5,0.445 H 13 a 2.0000001,2.0000001 0 0 1 -10e-4,4 H 3.5 A 2.5,2.5 0 1 1 4.105,8.574 0.5,0.5 0 0 0 4.701,8.245 4.002,4.002 0 0 1 8.5,5.5 Z"
         inkscape:connector-curvature="0"
         style="stroke:#302f2f;stroke-width:1.0948168;stroke-miterlimit:4;stroke-dasharray:none;stroke-opacity:1" />
    </g>
  </g>
</svg>
