<?xml version="1.0" encoding="UTF-8" standalone="no"?>
<svg
   xmlns:dc="http://purl.org/dc/elements/1.1/"
   xmlns:cc="http://creativecommons.org/ns#"
   xmlns:rdf="http://www.w3.org/1999/02/22-rdf-syntax-ns#"
   xmlns:svg="http://www.w3.org/2000/svg"
   xmlns="http://www.w3.org/2000/svg"
   id="svg14"
   version="1.1"
   fill="#302f2f"
   width="24px"
   viewBox="0 0 24 24"
   height="24px"
   enable-background="new 0 0 24 24">
  <metadata
     id="metadata20">
    <rdf:RDF>
      <cc:Work
         rdf:about="">
        <dc:format>image/svg+xml</dc:format>
        <dc:type
           rdf:resource="http://purl.org/dc/dcmitype/StillImage" />
        <dc:title></dc:title>
      </cc:Work>
    </rdf:RDF>
  </metadata>
  <defs
     id="defs18" />
  <circle
     r="9.0965099"
     cy="12.099033"
     cx="12.044785"
     id="path830"
     style="opacity:1;fill:none;fill-opacity:1;fill-rule:nonzero;stroke:#302f2f;stroke-width:1;stroke-linecap:round;stroke-miterlimit:4;stroke-dasharray:none;stroke-dashoffset:0;stroke-opacity:1" />
  <g
     transform="translate(-7.8713918,11.9666)"
     id="g1030"
     style="fill:#302f2f">
    <g
       id="g1009">
      <rect
         style="fill:none"
         y="0"
         height="24"
         width="24"
         x="0"
         id="rect1007" />
    </g>
    <g
       transform="matrix(0.4544416,0,0,0.4544416,13.668765,-5.1081009)"
       id="g1015">
      <g
         id="g1013">
        <path
           d="M 19.46,8 20.25,6.25 22,5.46 C 22.39,5.28 22.39,4.73 22,4.55 L 20.25,3.76 19.46,2 C 19.28,1.61 18.73,1.61 18.55,2 L 17.76,3.75 16,4.54 c -0.39,0.18 -0.39,0.73 0,0.91 L 17.75,6.24 18.54,8 c 0.18,0.39 0.74,0.39 0.92,0 z M 11.5,9.5 9.91,6 C 9.56,5.22 8.44,5.22 8.09,6 L 6.5,9.5 3,11.09 c -0.78,0.36 -0.78,1.47 0,1.82 L 6.5,14.5 8.09,18 c 0.36,0.78 1.47,0.78 1.82,0 L 11.5,14.5 15,12.91 c 0.78,-0.36 0.78,-1.47 0,-1.82 z M 18.54,16 17.75,17.75 16,18.54 c -0.39,0.18 -0.39,0.73 0,0.91 l 1.75,0.79 0.79,1.76 c 0.18,0.39 0.73,0.39 0.91,0 L 20.24,20.25 22,19.46 c 0.39,-0.18 0.39,-0.73 0,-0.91 L 20.25,17.76 19.46,16 c -0.18,-0.39 -0.74,-0.39 -0.92,0 z"
           id="path1011" />
      </g>
    </g>
  </g>
</svg>
