<?xml version="1.0" encoding="UTF-8" standalone="no"?>
<svg
   xmlns:dc="http://purl.org/dc/elements/1.1/"
   xmlns:cc="http://creativecommons.org/ns#"
   xmlns:rdf="http://www.w3.org/1999/02/22-rdf-syntax-ns#"
   xmlns:svg="http://www.w3.org/2000/svg"
   xmlns="http://www.w3.org/2000/svg"
   xmlns:sodipodi="http://sodipodi.sourceforge.net/DTD/sodipodi-0.dtd"
   xmlns:inkscape="http://www.inkscape.org/namespaces/inkscape"
   enable-background="new 0 0 24 24"
   height="24px"
   viewBox="0 0 24 24"
   width="24px"
   fill="#302f2f"
   version="1.1"
   id="svg14"
   sodipodi:docname="star_circle.svg"
   inkscape:version="0.92.4 (5da689c313, 2019-01-14)">
  <metadata
     id="metadata20">
    <rdf:RDF>
      <cc:Work
         rdf:about="">
        <dc:format>image/svg+xml</dc:format>
        <dc:type
           rdf:resource="http://purl.org/dc/dcmitype/StillImage" />
        <dc:title></dc:title>
      </cc:Work>
    </rdf:RDF>
  </metadata>
  <defs
     id="defs18" />
  <sodipodi:namedview
     pagecolor="#ffffff"
     bordercolor="#302f2f"
     borderopacity="1"
     objecttolerance="10"
     gridtolerance="10"
     guidetolerance="10"
     inkscape:pageopacity="0"
     inkscape:pageshadow="2"
     inkscape:window-width="1920"
     inkscape:window-height="1015"
     id="namedview16"
     showgrid="false"
     inkscape:zoom="13.906433"
     inkscape:cx="18.427986"
     inkscape:cy="11.990004"
     inkscape:window-x="0"
     inkscape:window-y="24"
     inkscape:window-maximized="0"
     inkscape:current-layer="g841" />
  <g
     id="g4"
     style="display:inline">
    <rect
       height="24"
       width="24"
       id="rect2"
       x="0"
       y="0"
       style="display:inline;fill:none" />
  </g>
  <g
     id="g12">
    <g
       id="g10">
      <path
         d="M 12,2 C 6.48,2 2,6.48 2,12 2,17.52 6.48,22 12,22 17.52,22 22,17.52 22,12 22,6.48 17.52,2 12,2 Z m 0,18 C 7.59,20 4,16.41 4,12 4,7.59 7.59,4 12,4 c 4.41,0 8,3.59 8,8 0,4.41 -3.59,8 -8,8 z"
         id="path6"
         inkscape:connector-curvature="0"
         style="display:inline" />
      <g
         style="fill:#302f2f"
         id="g841"
         transform="matrix(0.68008474,0,0,0.68008474,4.3728815,3.7118645)">
        <path
           id="path827"
           d="M 0,0 H 24 V 24 H 0 Z"
           inkscape:connector-curvature="0"
           style="fill:none" />
        <g
           style="fill:#302f2f"
           id="g885"
           transform="matrix(0.78752928,0,0,0.78752928,0.08630477,2.6897873)">
          <g
             id="g864">
            <rect
               id="rect862"
               x="0"
               width="24"
               height="24"
               y="0"
               style="fill:none" />
          </g>
          <g
             id="g870">
            <g
               id="g868">
              <path
                 id="path866"
                 d="M 19.46,8 20.25,6.25 22,5.46 C 22.39,5.28 22.39,4.73 22,4.55 L 20.25,3.76 19.46,2 C 19.28,1.61 18.73,1.61 18.55,2 L 17.76,3.75 16,4.54 c -0.39,0.18 -0.39,0.73 0,0.91 L 17.75,6.24 18.54,8 c 0.18,0.39 0.74,0.39 0.92,0 z M 11.5,9.5 9.91,6 C 9.56,5.22 8.44,5.22 8.09,6 L 6.5,9.5 3,11.09 c -0.78,0.36 -0.78,1.47 0,1.82 L 6.5,14.5 8.09,18 c 0.36,0.78 1.47,0.78 1.82,0 L 11.5,14.5 15,12.91 c 0.78,-0.36 0.78,-1.47 0,-1.82 z M 18.54,16 17.75,17.75 16,18.54 c -0.39,0.18 -0.39,0.73 0,0.91 l 1.75,0.79 0.79,1.76 c 0.18,0.39 0.73,0.39 0.91,0 L 20.24,20.25 22,19.46 c 0.39,-0.18 0.39,-0.73 0,-0.91 L 20.25,17.76 19.46,16 c -0.18,-0.39 -0.74,-0.39 -0.92,0 z"
                 inkscape:connector-curvature="0" />
            </g>
          </g>
        </g>
      </g>
    </g>
  </g>
</svg>
