<?xml version="1.0" encoding="UTF-8" standalone="no"?>
<svg
   xmlns:dc="http://purl.org/dc/elements/1.1/"
   xmlns:cc="http://creativecommons.org/ns#"
   xmlns:rdf="http://www.w3.org/1999/02/22-rdf-syntax-ns#"
   xmlns:svg="http://www.w3.org/2000/svg"
   xmlns="http://www.w3.org/2000/svg"
   xmlns:sodipodi="http://sodipodi.sourceforge.net/DTD/sodipodi-0.dtd"
   xmlns:inkscape="http://www.inkscape.org/namespaces/inkscape"
   enable-background="new 0 0 24 24"
   height="24px"
   viewBox="0 0 24 24"
   width="24px"
   fill="#302f2f"
   version="1.1"
   id="svg14"
   sodipodi:docname="scatter.svg"
   inkscape:version="0.92.4 (5da689c313, 2019-01-14)">
  <metadata
     id="metadata20">
    <rdf:RDF>
      <cc:Work
         rdf:about="">
        <dc:format>image/svg+xml</dc:format>
        <dc:type
           rdf:resource="http://purl.org/dc/dcmitype/StillImage" />
        <dc:title></dc:title>
      </cc:Work>
    </rdf:RDF>
  </metadata>
  <defs
     id="defs18" />
  <sodipodi:namedview
     pagecolor="#ffffff"
     bordercolor="#302f2f"
     borderopacity="1"
     objecttolerance="10"
     gridtolerance="10"
     guidetolerance="10"
     inkscape:pageopacity="0"
     inkscape:pageshadow="2"
     inkscape:window-width="1920"
     inkscape:window-height="1015"
     id="namedview16"
     showgrid="false"
     inkscape:zoom="19.666667"
     inkscape:cx="16.821661"
     inkscape:cy="13.280282"
     inkscape:window-x="0"
     inkscape:window-y="24"
     inkscape:window-maximized="0"
     inkscape:current-layer="g1099" />
  <g
     id="g12"
     style="display:inline">
    <g
       id="g10">
      <path
         d="M 12,2 C 6.48,2 2,6.48 2,12 2,17.52 6.48,22 12,22 17.52,22 22,17.52 22,12 22,6.48 17.52,2 12,2 Z m 0,18 C 7.59,20 4,16.41 4,12 4,7.59 7.59,4 12,4 c 4.41,0 8,3.59 8,8 0,4.41 -3.59,8 -8,8 z"
         id="path6"
         inkscape:connector-curvature="0"
         style="display:inline" />
      <g
         style="display:inline;fill:#302f2f"
         id="g841"
         transform="matrix(0.68008474,0,0,0.68008474,4.3728815,3.7118645)">
        <path
           id="path827"
           d="M 0,0 H 24 V 24 H 0 Z"
           inkscape:connector-curvature="0"
           style="display:inline;fill:none" />
        <g
           style="display:inline;fill:#302f2f;stroke:none;stroke-width:0;stroke-miterlimit:4;stroke-dasharray:none;stroke-opacity:1"
           id="g920"
           transform="translate(-1.9032407,-0.10573559)">
          <path
             id="path906"
             d="M 0,0 H 24 V 24 H 0 Z"
             inkscape:connector-curvature="0"
             style="fill:none;stroke:none;stroke-width:0;stroke-miterlimit:4;stroke-dasharray:none;stroke-opacity:1" />
          <g
             style="display:inline;fill:#302f2f;stroke:#302f2f;stroke-width:0;stroke-miterlimit:4;stroke-dasharray:none;stroke-opacity:1"
             id="g991"
             transform="matrix(0.79193494,0,0,0.79193494,3.6752678,1.8678692)" />
        </g>
      </g>
    </g>
  </g>
  <g
     style="fill:#302f2f"
     id="g1116"
     transform="matrix(0.5720339,0,0,0.5720339,5.0847458,5.1864408)">
    <g
       id="g1095">
      <rect
         id="rect1093"
         x="0"
         width="24"
         height="24"
         y="0"
         style="fill:none" />
    </g>
    <g
       id="g1101">
      <g
         id="g1099">
        <path
           id="path1097"
           d="m 22.911111,7.9111111 c 0,1.1 -0.9,2 -2,2 -0.18,0 -0.35,-0.02 -0.51,-0.07 l -3.56,3.5499999 c 0.05,0.16 0.07,0.34 0.07,0.52 0,1.1 -0.9,2 -2,2 -1.1,0 -2,-0.9 -2,-2 0,-0.18 0.02,-0.36 0.07,-0.52 l -2.55,-2.55 c -0.16,0.05 -0.34,0.07 -0.5199998,0.07 -0.1800001,0 -0.3600001,-0.02 -0.5200001,-0.07 l -4.55,4.56 c 0.05,0.16 0.07,0.33 0.07,0.51 0,1.1 -0.9,2 -2,2 -1.1,0 -1.99999998,-0.9 -1.99999998,-2 0,-1.1 0.89999998,-2 1.99999998,-2 0.18,0 0.35,0.02 0.51,0.07 l 4.56,-4.5499999 c -0.05,-0.16 -0.07,-0.34 -0.07,-0.52 0,-1.1 0.9,-2 2.0000001,-2 1.0999998,0 1.9999998,0.9 1.9999998,2 0,0.18 -0.02,0.36 -0.07,0.52 l 2.55,2.5499999 c 0.16,-0.05 0.34,-0.07 0.52,-0.07 0.18,0 0.36,0.02 0.52,0.07 l 3.55,-3.5599999 c -0.05,-0.16 -0.07,-0.33 -0.07,-0.51 0,-1.1 0.9,-2 2,-2 1.1,0 2,0.9 2,2 z"
           inkscape:connector-curvature="0"
           style="stroke:#302f2f;stroke-width:0.87407404;stroke-miterlimit:4;stroke-dasharray:none;stroke-opacity:1" />
      </g>
    </g>
  </g>
</svg>
