<?xml version="1.0" encoding="UTF-8" standalone="no"?>
<svg
   xmlns:dc="http://purl.org/dc/elements/1.1/"
   xmlns:cc="http://creativecommons.org/ns#"
   xmlns:rdf="http://www.w3.org/1999/02/22-rdf-syntax-ns#"
   xmlns:svg="http://www.w3.org/2000/svg"
   xmlns="http://www.w3.org/2000/svg"
   xmlns:sodipodi="http://sodipodi.sourceforge.net/DTD/sodipodi-0.dtd"
   xmlns:inkscape="http://www.inkscape.org/namespaces/inkscape"
   enable-background="new 0 0 24 24"
   height="24px"
   viewBox="0 0 24 24"
   width="24px"
   fill="#302f2f"
   version="1.1"
   id="svg14"
   sodipodi:docname="mid_water.svg"
   inkscape:version="0.92.4 (5da689c313, 2019-01-14)">
  <metadata
     id="metadata20">
    <rdf:RDF>
      <cc:Work
         rdf:about="">
        <dc:format>image/svg+xml</dc:format>
        <dc:type
           rdf:resource="http://purl.org/dc/dcmitype/StillImage" />
        <dc:title />
      </cc:Work>
    </rdf:RDF>
  </metadata>
  <defs
     id="defs18" />
  <sodipodi:namedview
     pagecolor="#ffffff"
     bordercolor="#302f2f"
     borderopacity="1"
     objecttolerance="10"
     gridtolerance="10"
     guidetolerance="10"
     inkscape:pageopacity="0"
     inkscape:pageshadow="2"
     inkscape:window-width="1920"
     inkscape:window-height="1015"
     id="namedview16"
     showgrid="false"
     inkscape:zoom="45.254834"
     inkscape:cx="7.0312346"
     inkscape:cy="10.554997"
     inkscape:window-x="0"
     inkscape:window-y="24"
     inkscape:window-maximized="0"
     inkscape:current-layer="svg14" />
  <g
     id="g12"
     style="display:inline">
    <g
       id="g10">
      <path
         d="M 12,2 C 6.48,2 2,6.48 2,12 2,17.52 6.48,22 12,22 17.52,22 22,17.52 22,12 22,6.48 17.52,2 12,2 Z m 0,18 C 7.59,20 4,16.41 4,12 4,7.59 7.59,4 12,4 c 4.41,0 8,3.59 8,8 0,4.41 -3.59,8 -8,8 z"
         id="path6"
         inkscape:connector-curvature="0"
         style="display:inline" />
      <g
         style="display:inline;fill:#302f2f"
         id="g841"
         transform="matrix(0.68008474,0,0,0.68008474,4.3728815,3.7118645)">
        <path
           id="path827"
           d="M 0,0 H 24 V 24 H 0 Z"
           inkscape:connector-curvature="0"
           style="display:inline;fill:none" />
        <g
           style="display:inline;fill:#302f2f;stroke:none;stroke-width:0;stroke-miterlimit:4;stroke-dasharray:none;stroke-opacity:1"
           id="g920"
           transform="translate(-1.9032407,-0.10573559)">
          <path
             id="path906"
             d="M 0,0 H 24 V 24 H 0 Z"
             inkscape:connector-curvature="0"
             style="fill:none;stroke:none;stroke-width:0;stroke-miterlimit:4;stroke-dasharray:none;stroke-opacity:1" />
          <g
             style="display:inline;fill:#302f2f;stroke:#302f2f;stroke-width:0;stroke-miterlimit:4;stroke-dasharray:none;stroke-opacity:1"
             id="g991"
             transform="matrix(0.79193494,0,0,0.79193494,3.6752678,1.8678692)" />
        </g>
      </g>
    </g>
  </g>
  <g
     style="display:inline;fill:#302f2f"
     id="g1271"
     transform="matrix(0.68008474,0,0,0.68008474,4.3728815,3.7118645)">
    <rect
       id="rect1257"
       width="24"
       height="24"
       x="0"
       y="0"
       style="display:inline;fill:none" />
    <path
       style="display:inline;stroke:#302f2f;stroke-width:0.40000001;stroke-miterlimit:4;stroke-dasharray:none;stroke-opacity:1"
       d="M 12.076172,5.2246094 C 8.45132,8.3189949 6.6347656,10.992119 6.6347656,13.25 c 0,3.386822 2.5850501,5.576172 5.4414064,5.576172 2.856356,0 5.441406,-2.18935 5.441406,-5.576172 0,-2.257881 -1.816554,-4.9310051 -5.441406,-8.0253906 z m 0,1.8085937 c 2.650692,2.4216198 3.964381,4.4548519 4.060547,6.0292969 H 8.015625 C 8.112078,11.493718 9.4258025,9.454528 12.076172,7.0332031 Z"
       transform="matrix(1.470405,0,0,1.470405,-6.4299068,-5.4579441)"
       id="path1300"
       inkscape:connector-curvature="0" />
  </g>
</svg>
