<?xml version="1.0" encoding="UTF-8" standalone="no"?>
<svg
   xmlns:dc="http://purl.org/dc/elements/1.1/"
   xmlns:cc="http://creativecommons.org/ns#"
   xmlns:rdf="http://www.w3.org/1999/02/22-rdf-syntax-ns#"
   xmlns:svg="http://www.w3.org/2000/svg"
   xmlns="http://www.w3.org/2000/svg"
   id="svg14"
   version="1.1"
   fill="#302f2f"
   width="24px"
   viewBox="0 0 24 24"
   height="24px"
   enable-background="new 0 0 24 24">
  <metadata
     id="metadata20">
    <rdf:RDF>
      <cc:Work
         rdf:about="">
        <dc:format>image/svg+xml</dc:format>
        <dc:type
           rdf:resource="http://purl.org/dc/dcmitype/StillImage" />
        <dc:title></dc:title>
      </cc:Work>
    </rdf:RDF>
  </metadata>
  <defs
     id="defs18" />
  <circle
     r="9.0965099"
     cy="12.099033"
     cx="12.044785"
     id="path830"
     style="opacity:1;fill:none;fill-opacity:1;fill-rule:nonzero;stroke:#302f2f;stroke-width:1.1;stroke-linecap:round;stroke-miterlimit:4;stroke-dasharray:none;stroke-dashoffset:0;stroke-opacity:1" />
  <g
     transform="matrix(0.33898303,0,0,0.33898303,8.054961,8.1337869)"
     id="g1083"
     style="fill:#302f2f">
    <path
       style="fill:none"
       d="M 0,0 H 24 V 24 H 0 Z"
       id="path1069" />
    <path
       d="M 12.09,2.91 C 10.08,0.9 7.07,0.49 4.65,1.67 L 8.28,5.3 c 0.39,0.39 0.39,1.02 0,1.41 L 6.69,8.3 C 6.3,8.7 5.67,8.7 5.28,8.3 L 1.65,4.67 C 0.48,7.1 0.89,10.09 2.9,12.1 c 1.86,1.86 4.58,2.35 6.89,1.48 l 7.96,7.96 c 1.03,1.03 2.69,1.03 3.71,0 1.03,-1.03 1.03,-2.69 0,-3.71 L 13.54,9.9 C 14.46,7.56 13.98,4.8 12.09,2.91 Z"
       id="path1071" />
  </g>
</svg>
