<?xml version="1.0" encoding="UTF-8" standalone="no"?>
<svg
   xmlns:dc="http://purl.org/dc/elements/1.1/"
   xmlns:cc="http://creativecommons.org/ns#"
   xmlns:rdf="http://www.w3.org/1999/02/22-rdf-syntax-ns#"
   xmlns:svg="http://www.w3.org/2000/svg"
   xmlns="http://www.w3.org/2000/svg"
   xmlns:sodipodi="http://sodipodi.sourceforge.net/DTD/sodipodi-0.dtd"
   xmlns:inkscape="http://www.inkscape.org/namespaces/inkscape"
   id="svg14"
   version="1.1"
   fill="#302f2f"
   width="24px"
   viewBox="0 0 24 24"
   height="24px"
   enable-background="new 0 0 24 24"
   sodipodi:docname="Sensibilité_à_la_variabilité_climatique.svg"
   inkscape:version="0.92.4 (5da689c313, 2019-01-14)">
  <sodipodi:namedview
     pagecolor="#ffffff"
     bordercolor="#666666"
     borderopacity="1"
     objecttolerance="10"
     gridtolerance="10"
     guidetolerance="10"
     inkscape:pageopacity="0"
     inkscape:pageshadow="2"
     inkscape:window-width="1920"
     inkscape:window-height="1052"
     id="namedview9"
     showgrid="false"
     inkscape:zoom="21.755963"
     inkscape:cx="5.0329766"
     inkscape:cy="12.744514"
     inkscape:window-x="0"
     inkscape:window-y="28"
     inkscape:window-maximized="0"
     inkscape:current-layer="g1222" />
  <metadata
     id="metadata20">
    <rdf:RDF>
      <cc:Work
         rdf:about="">
        <dc:format>image/svg+xml</dc:format>
        <dc:type
           rdf:resource="http://purl.org/dc/dcmitype/StillImage" />
        <dc:title />
      </cc:Work>
    </rdf:RDF>
  </metadata>
  <defs
     id="defs18" />
  <circle
     r="9.0965099"
     cy="12.099033"
     cx="12.044785"
     id="path830"
     style="display:inline;opacity:1;fill:none;fill-opacity:1;fill-rule:nonzero;stroke:#302f2f;stroke-width:1.10000002;stroke-linecap:round;stroke-miterlimit:4;stroke-dasharray:none;stroke-dashoffset:0;stroke-opacity:1" />
  <g
     transform="matrix(0.57453743,0,0,0.57453743,4.7553648,1.4432624)"
     id="g1222"
     style="fill:#000000">
    <g
       style="fill:#302f2f;stroke:#302f2f;stroke-width:0.27881315;stroke-miterlimit:4;stroke-dasharray:none;stroke-opacity:1"
       id="g833"
       transform="matrix(1.2485284,0,0,1.2485284,2.7249753,8.8321567)">
      <path
         id="path819"
         d="m 9.5,12.5 a 1.5,1.5 0 1 1 -2,-1.415 V 6.5 a 0.5,0.5 0 0 1 1,0 v 4.585 a 1.5,1.5 0 0 1 1,1.415 z"
         inkscape:connector-curvature="0"
         style="stroke:#302f2f;stroke-width:0.27881315;stroke-miterlimit:4;stroke-dasharray:none;stroke-opacity:1" />
      <path
         id="path821"
         d="m 5.5,2.5 a 2.5,2.5 0 0 1 5,0 v 7.55 a 3.5,3.5 0 1 1 -5,0 z M 8,1 A 1.5,1.5 0 0 0 6.5,2.5 v 7.987 l -0.167,0.15 a 2.5,2.5 0 1 0 3.333,0 L 9.5,10.487 V 2.5 A 1.5,1.5 0 0 0 8,1 Z"
         inkscape:connector-curvature="0"
         style="stroke:#302f2f;stroke-width:0.27881315;stroke-miterlimit:4;stroke-dasharray:none;stroke-opacity:1" />
    </g>
  </g>
</svg>
